#!OML:ASF H:\LiuWeirdWalks\Patient Classification 1\Patient 1\Session 1\male.ASF
:FULLY-SPECIFIED
:DEGREES
284
root 1.07545 17.6493 2.91271 5.20104 -0.958251 -9.80587
lowerback 5.66027 2.58733 7.28147
upperback -1.40583 4.17097 4.07463
thorax -4.439 1.92628 -0.216836
lowerneck -16.1279 -0.951482 4.99778
upperneck 18.6384 -1.45574 -5.24561
head 8.37103 -0.879526 -2.76698
rclavicle -1.22998e-014 1.27222e-014
rhumerus -30.7385 -5.23963 -76.5505
rradius 38.1273
rwrist -8.15368
rhand -20.3447 -2.97239
rfingers 7.12502
rthumb 6.00699 -32.8672
lclavicle -1.22998e-014 1.27222e-014
lhumerus -43.0276 11.5307 74.8935
lradius 15.7886
lwrist -6.83701
lhand -14.397 -4.06984
lfingers 7.12502
lthumb 11.7463 25.5808
rfemur 16.6051 1.62782 32.5293
rtibia 5.89162
rfoot -6.6786 -18.3941
rtoes -13.8034
lfemur -39.9011 -0.134991 -6.31323
ltibia 22.3704
lfoot -11.5491 22.9854
ltoes -16.1595
285
root 1.10362 17.6204 3.22889 5.18411 -1.53722 -9.6899
lowerback 5.45822 2.79146 7.19287
upperback -1.40765 4.40938 3.96055
thorax -4.31014 2.04917 -0.295044
lowerneck -16.041 -0.932319 5.03328
upperneck 18.7404 -1.4407 -5.20432
head 8.39075 -0.864024 -2.75814
rclavicle -3.00662e-014 -3.33958e-014
rhumerus -30.4869 -5.20135 -76.4638
rradius 38.2577
rwrist -7.9775
rhand -20.4871 -2.70585
rfingers 7.12502
rthumb 5.86958 -32.6046
lclavicle -3.00662e-014 -3.33958e-014
lhumerus -43.9336 13.3592 73.2456
lradius 15.0313
lwrist -8.96974
lhand -14.4302 -4.23394
lfingers 7.12502
lthumb 11.7143 25.4185
rfemur 17.8053 1.94809 32.1585
rtibia 5.75393
rfoot -5.9117 -17.8877
rtoes -15.1187
lfemur -39.8648 -0.204365 -6.25974
ltibia 21.7579
lfoot -12.5085 23.6773
ltoes -17.252
286
root 1.13124 17.5908 3.54765 5.09773 -2.02431 -9.54031
lowerback 5.29919 2.9548 7.05698
upperback -1.40613 4.59558 3.85182
thorax -4.20878 2.14683 -0.338525
lowerneck -15.9497 -0.918343 5.05599
upperneck 18.8818 -1.42991 -5.15639
head 8.42292 -0.850407 -2.74622
rclavicle -3.60794e-014 -1.70955e-014
rhumerus -30.3135 -5.21572 -76.3537
rradius 38.2943
rwrist -7.7909
rhand -20.6185 -2.45298
rfingers 7.12502
rthumb 5.74269 -32.3552
lclavicle -3.60794e-014 -1.70955e-014
lhumerus -44.9432 15.1445 71.521
lradius 14.3819
lwrist -10.9009
lhand -14.4415 -4.39163
lfingers 7.12502
lthumb 11.7034 25.2615
rfemur 18.5687 2.17233 31.7316
rtibia 6.59084
rfoot -5.46006 -17.3679
rtoes -16.4537
lfemur -39.748 0.621711 -6.85352
ltibia 21.6154
lfoot -13.0711 23.2667
ltoes -18.0569
287
root 1.15832 17.5601 3.869 4.93609 -2.39465 -9.3441
lowerback 5.18065 3.06805 6.85672
upperback -1.39792 4.71567 3.75233
thorax -4.13278 2.2129 -0.333567
lowerneck -15.8251 -0.902945 5.07077
upperneck 19.0199 -1.41392 -5.10751
head 8.44832 -0.834496 -2.7315
rclavicle -2.07481e-014 1.35174e-014
rhumerus -30.2153 -5.29247 -76.2153
rradius 38.2512
rwrist -7.61567
rhand -20.7191 -2.2892
rfingers 7.12502
rthumb 5.64552 -32.194
lclavicle -2.07481e-014 1.35174e-014
lhumerus -46.0337 16.8393 69.7696
lradius 13.8222
lwrist -12.5829
lhand -14.4193 -4.51976
lfingers 7.12502
lthumb 11.7248 25.1321
rfemur 19.003 2.27372 31.2412
rtibia 8.1814
rfoot -5.19689 -16.8055
rtoes -17.7968
lfemur -39.547 2.03509 -7.93404
ltibia 21.8861
lfoot -13.3035 22.0456
ltoes -18.6416
288
root 1.18553 17.5277 4.19377 4.70615 -2.65255 -9.12208
lowerback 5.08912 3.13334 6.61775
upperback -1.38035 4.77268 3.66481
thorax -4.06997 2.24856 -0.29134
lowerneck -15.7024 -0.883228 5.0946
upperneck 19.1672 -1.39185 -5.06944
head 8.47737 -0.816123 -2.72149
rclavicle 6.1822e-014 5.96354e-015
rhumerus -30.1925 -5.43143 -76.0534
rradius 38.1351
rwrist -7.49325
rhand -20.7607 -2.23529
rfingers 7.12502
rthumb 5.60536 -32.1412
lclavicle 6.1822e-014 5.96354e-015
lhumerus -47.1595 18.3185 68.1114
lradius 13.3727
lwrist -13.8709
lhand -14.3172 -4.57883
lfingers 7.12502
lthumb 11.8232 25.0674
rfemur 19.2408 2.25946 30.7111
rtibia 10.2422
rfoot -4.96011 -16.1634
rtoes -19.1676
lfemur -39.2521 3.47978 -9.1285
ltibia 22.501
lfoot -13.3255 20.5583
ltoes -19.1509
